<svg xmlns="http://www.w3.org/2000/svg" width="1024" height="1024" viewBox="0 0 1024 1024">
<g>
<path d="M 505.83 949.97 C495.17,954.03 491.39,952.83 465.00,937.01 C433.68,918.24 399.12,894.50 372.50,873.48 C307.27,821.98 237.84,740.33 196.51,666.50 C158.86,599.26 137.84,536.27 129.86,466.84 C126.81,440.29 126.51,388.65 129.32,374.00 C138.40,326.69 148.39,298.96 168.19,266.18 C185.98,236.72 200.52,218.26 222.06,197.77 C260.34,161.37 300.98,135.34 348.76,116.62 C378.81,104.84 414.74,95.80 445.31,92.31 C465.53,90.00 528.22,90.00 550.55,92.30 C593.28,96.71 633.78,108.85 679.50,130.94 C718.44,149.76 747.06,169.91 776.05,198.93 C811.22,234.14 838.19,275.64 852.13,316.00 C859.61,337.62 865.56,363.38 868.19,385.50 C869.90,399.85 869.90,463.21 868.20,474.50 C865.97,489.20 856.73,531.45 852.78,545.00 C845.21,570.93 827.23,614.61 811.33,645.73 C792.78,682.04 774.82,710.66 748.16,746.44 C722.63,780.69 694.82,810.46 655.50,845.63 C632.30,866.38 633.76,865.16 611.00,882.88 C570.87,914.14 527.76,941.64 505.83,949.97 ZM 384.00 641.95 C396.17,642.91 407.38,642.31 422.91,639.89 C432.65,638.37 437.97,637.59 440.81,634.52 C444.22,630.82 444.04,623.80 443.63,608.20 L 443.61 607.50 C443.02,584.91 441.64,574.29 437.49,560.36 C424.03,515.11 403.88,480.87 374.68,453.61 C329.70,411.60 285.75,390.31 235.00,385.92 C216.95,384.36 183.52,385.04 181.61,387.00 C178.25,390.45 176.69,403.46 176.77,427.50 C176.88,460.43 179.65,477.37 188.62,499.93 C203.76,537.97 226.56,568.53 258.31,593.32 C293.16,620.53 339.45,638.44 384.00,641.95 ZM 565.06 639.91 C571.47,641.17 616.36,641.19 627.79,639.94 C642.19,638.37 654.56,634.76 681.40,624.33 C701.95,616.34 728.16,601.26 743.21,588.76 C778.31,559.62 801.81,524.89 813.46,484.95 C818.77,466.75 819.50,459.81 819.50,427.50 C819.50,402.64 819.25,397.69 817.74,392.81 C815.99,387.15 815.95,387.11 811.24,386.31 C808.63,385.86 794.80,385.51 780.50,385.53 C757.19,385.55 753.44,385.79 744.22,387.83 C720.13,393.16 699.28,400.70 677.00,412.13 C652.37,424.76 638.56,435.55 617.48,458.64 C597.78,480.22 587.61,494.24 578.07,513.00 C567.21,534.34 561.13,551.34 556.42,573.50 C554.00,584.92 553.61,589.23 553.25,609.00 L 552.83 631.50 L 556.73 635.27 C559.40,637.85 562.02,639.31 565.06,639.91 ZM 489.17 925.01 C492.10,926.07 494.92,926.94 495.42,926.96 C497.36,927.04 491.50,921.95 488.33,920.80 C486.34,920.08 485.00,918.92 485.00,917.90 C485.00,916.78 482.21,914.82 476.75,912.09 C467.51,907.47 432.29,883.37 406.50,864.00 C374.41,839.90 354.90,822.67 321.94,789.33 C282.74,749.69 263.12,725.42 238.75,686.47 C235.64,681.51 231.89,676.33 230.42,674.97 L 227.73 672.50 L 228.22 677.01 C228.90,683.42 232.84,690.81 242.59,704.00 C247.27,710.33 253.71,719.33 256.91,724.00 C294.36,778.80 345.52,831.56 399.00,870.54 C428.59,892.11 474.07,919.58 489.17,925.01 Z" fill="rgb(8,8,8)"/>
<path d="M 489.17 925.01 C474.07,919.58 428.59,892.11 399.00,870.54 C345.52,831.56 294.36,778.80 256.91,724.00 C253.71,719.33 247.27,710.33 242.59,704.00 C232.84,690.81 228.90,683.42 228.22,677.01 L 227.73 672.50 L 230.42 674.97 C231.89,676.33 235.64,681.51 238.75,686.47 C263.12,725.42 282.74,749.69 321.94,789.33 C354.90,822.67 374.41,839.90 406.50,864.00 C432.29,883.37 467.51,907.47 476.75,912.09 C482.21,914.82 485.00,916.78 485.00,917.90 C485.00,918.92 486.34,920.08 488.33,920.80 C491.50,921.95 497.36,927.04 495.42,926.96 C494.92,926.94 492.10,926.07 489.17,925.01 ZM 137.00 635.70 C137.00,636.41 136.59,637.00 136.09,637.00 C135.16,637.00 130.71,624.96 131.39,624.27 C131.92,623.75 137.00,634.10 137.00,635.70 ZM 509.50 51.00 C509.89,51.62 507.86,52.00 504.12,52.00 C500.82,52.00 497.84,51.55 497.50,51.00 C497.11,50.38 499.14,50.00 502.88,50.00 C506.18,50.00 509.16,50.45 509.50,51.00 Z" fill="rgb(94,94,94)"/>
<path d="M 509.50 51.00 C509.25,50.59 507.52,50.23 505.29,50.08 C517.02,50.15 529.90,50.63 537.00,51.44 L 548.50 52.74 L 536.50 52.65 C502.20,52.38 476.70,51.48 482.90,50.75 C486.49,50.33 492.93,50.11 500.27,50.08 C498.23,50.22 497.22,50.54 497.50,51.00 C497.84,51.55 500.82,52.00 504.12,52.00 C507.86,52.00 509.89,51.62 509.50,51.00 ZM 142.80 647.25 C145.28,652.88 143.93,653.62 140.98,648.25 C139.85,646.19 137.99,643.02 136.85,641.22 C133.81,636.40 125.93,614.67 126.88,613.72 C127.55,613.05 130.60,619.39 134.42,629.25 C133.08,626.51 131.66,624.01 131.39,624.27 C130.71,624.96 135.16,637.00 136.09,637.00 C136.52,637.00 136.88,636.58 136.97,636.01 C138.16,639.07 139.38,641.63 139.82,641.92 C140.31,642.24 141.65,644.64 142.80,647.25 ZM 731.51 115.01 C731.54,115.07 731.58,115.12 731.61,115.18 C731.82,115.51 731.98,115.77 731.92,115.86 C731.68,116.19 728.53,114.40 714.18,106.25 L 712.18 105.11 C701.77,99.19 697.39,96.09 701.70,97.69 C708.84,100.35 730.07,112.68 731.51,115.01 ZM 584.00 58.23 C584.00,59.34 579.47,59.01 572.00,57.36 C568.42,56.57 561.67,55.28 557.00,54.49 L 548.50 53.06 L 557.85 53.53 C567.80,54.02 584.00,56.93 584.00,58.23 ZM 844.66 670.00 C842.21,676.14 831.21,695.15 830.64,694.23 C830.35,693.75 831.68,690.73 833.62,687.52 C835.55,684.30 838.42,679.16 839.99,676.09 C841.55,673.01 843.56,669.60 844.45,668.50 C845.95,666.64 845.97,666.74 844.66,670.00 ZM 115.00 580.46 C115.00,581.31 114.64,582.00 114.21,582.00 C113.20,582.00 105.46,556.20 106.24,555.43 C106.55,555.12 107.14,556.35 107.54,558.17 C107.94,560.00 109.78,565.41 111.63,570.21 C113.48,575.00 115.00,579.62 115.00,580.46 ZM 125.99 609.25 C126.00,609.66 125.55,610.00 125.00,610.00 C124.45,610.00 123.99,609.44 123.97,608.75 C123.96,608.06 122.20,603.09 120.06,597.70 C117.92,592.30 116.64,588.05 117.21,588.24 C118.13,588.54 125.98,607.32 125.99,609.25 ZM 776.65 775.34 C774.17,779.57 771.83,781.50 770.64,780.31 C770.34,780.00 771.94,777.56 774.21,774.87 C776.47,772.19 778.53,770.20 778.78,770.45 C779.04,770.70 778.08,772.90 776.65,775.34 ZM 880.33 589.00 C878.63,595.19 878.45,595.53 877.59,594.15 C877.26,593.61 878.18,589.86 879.64,585.83 C882.40,578.23 884.77,574.04 882.90,580.07 C882.32,581.96 881.16,585.97 880.33,589.00 ZM 855.58 648.85 C852.81,654.31 850.34,656.87 851.97,652.59 C853.95,647.38 857.33,641.54 857.71,642.67 C857.93,643.31 856.97,646.10 855.58,648.85 ZM 100.92 326.40 C99.67,331.38 98.00,333.45 98.00,330.03 C98.00,327.47 100.82,320.49 101.56,321.22 C101.85,321.52 101.56,323.84 100.92,326.40 ZM 96.52 511.25 C96.91,513.86 96.97,516.00 96.66,516.00 C95.85,516.00 94.01,508.97 94.04,506.00 C94.07,502.17 95.67,505.53 96.52,511.25 ZM 605.00 62.54 C605.00,62.79 603.23,63.00 601.06,63.00 C597.49,63.00 595.03,61.64 596.30,60.37 C596.87,59.80 605.00,61.83 605.00,62.54 ZM 202.54 748.46 C205.33,752.12 205.50,753.08 203.23,752.27 C201.80,751.76 198.59,746.07 199.33,745.34 C199.59,745.08 201.03,746.49 202.54,748.46 ZM 874.52 605.31 C872.42,610.32 871.02,610.77 872.21,606.06 C872.76,603.90 873.84,601.89 874.60,601.60 C876.33,600.94 876.33,600.96 874.52,605.31 ZM 903.39 496.50 C903.07,499.80 902.39,503.17 901.88,504.00 C901.28,504.97 901.19,503.72 901.62,500.52 C902.68,492.70 904.07,489.54 903.39,496.50 ZM 454.00 53.00 C452.62,53.44 449.70,53.80 447.50,53.80 C444.08,53.80 443.86,53.68 446.00,53.00 C447.38,52.56 450.30,52.20 452.50,52.20 C455.92,52.20 456.14,52.32 454.00,53.00 Z" fill="rgb(158,158,158)"/>
<path d="M 0.00 512.00 L 0.00 0.00 L 512.00 0.00 L 1024.00 0.00 L 1024.00 512.00 L 1024.00 1024.00 L 512.00 1024.00 L 0.00 1024.00 L 0.00 512.00 ZM 505.83 949.97 C527.76,941.64 570.87,914.14 611.00,882.88 C633.76,865.16 632.30,866.38 655.50,845.63 C694.82,810.46 722.63,780.69 748.16,746.44 C774.82,710.66 792.78,682.04 811.33,645.73 C827.23,614.61 845.21,570.93 852.78,545.00 C856.73,531.45 865.97,489.20 868.20,474.50 C869.90,463.21 869.90,399.85 868.19,385.50 C865.56,363.38 859.61,337.62 852.13,316.00 C838.19,275.64 811.22,234.14 776.05,198.93 C747.06,169.91 718.44,149.76 679.50,130.94 C633.78,108.85 593.28,96.71 550.55,92.30 C528.22,90.00 465.53,90.00 445.31,92.31 C414.74,95.80 378.81,104.84 348.76,116.62 C300.98,135.34 260.34,161.37 222.06,197.77 C200.52,218.26 185.98,236.72 168.19,266.18 C148.39,298.96 138.40,326.69 129.32,374.00 C126.51,388.65 126.81,440.29 129.86,466.84 C137.84,536.27 158.86,599.26 196.51,666.50 C237.84,740.33 307.27,821.98 372.50,873.48 C399.12,894.50 433.68,918.24 465.00,937.01 C491.39,952.83 495.17,954.03 505.83,949.97 ZM 776.65 775.34 C778.08,772.90 779.04,770.70 778.78,770.45 C778.53,770.20 776.47,772.19 774.21,774.87 C771.94,777.56 770.34,780.00 770.64,780.31 C771.83,781.50 774.17,779.57 776.65,775.34 ZM 202.54 748.46 C201.03,746.49 199.59,745.08 199.33,745.34 C198.59,746.07 201.80,751.76 203.23,752.27 C205.50,753.08 205.33,752.12 202.54,748.46 ZM 844.66 670.00 C845.97,666.74 845.95,666.64 844.45,668.50 C843.56,669.60 841.55,673.01 839.99,676.09 C838.42,679.16 835.55,684.30 833.62,687.52 C831.68,690.73 830.35,693.75 830.64,694.23 C831.21,695.15 842.21,676.14 844.66,670.00 ZM 855.58 648.85 C856.97,646.10 857.93,643.31 857.71,642.67 C857.33,641.54 853.95,647.38 851.97,652.59 C850.34,656.87 852.81,654.31 855.58,648.85 ZM 142.80 647.25 C141.65,644.64 140.31,642.24 139.82,641.92 C139.33,641.60 137.86,638.45 136.56,634.92 C131.78,621.91 127.67,612.93 126.88,613.72 C125.93,614.67 133.81,636.40 136.85,641.22 C137.99,643.02 139.85,646.19 140.98,648.25 C143.93,653.62 145.28,652.88 142.80,647.25 ZM 125.99 609.25 C125.98,607.32 118.13,588.54 117.21,588.24 C116.64,588.05 117.92,592.30 120.06,597.70 C122.20,603.09 123.96,608.06 123.97,608.75 C123.99,609.44 124.45,610.00 125.00,610.00 C125.55,610.00 126.00,609.66 125.99,609.25 ZM 874.52 605.31 C876.33,600.96 876.33,600.94 874.60,601.60 C873.84,601.89 872.76,603.90 872.21,606.06 C871.02,610.77 872.42,610.32 874.52,605.31 ZM 880.33 589.00 C881.16,585.97 882.32,581.96 882.90,580.07 C884.77,574.04 882.40,578.23 879.64,585.83 C878.18,589.86 877.26,593.61 877.59,594.15 C878.45,595.53 878.63,595.19 880.33,589.00 ZM 115.00 580.46 C115.00,579.62 113.48,575.00 111.63,570.21 C109.78,565.41 107.94,560.00 107.54,558.17 C107.14,556.35 106.55,555.12 106.24,555.43 C105.46,556.20 113.20,582.00 114.21,582.00 C114.64,582.00 115.00,581.31 115.00,580.46 ZM 96.52 511.25 C95.67,505.53 94.07,502.17 94.04,506.00 C94.01,508.97 95.85,516.00 96.66,516.00 C96.97,516.00 96.91,513.86 96.52,511.25 ZM 903.39 496.50 C904.07,489.54 902.68,492.70 901.62,500.52 C901.19,503.72 901.28,504.97 901.88,504.00 C902.39,503.17 903.07,499.80 903.39,496.50 ZM 100.92 326.40 C101.56,323.84 101.85,321.52 101.56,321.22 C100.82,320.49 98.00,327.47 98.00,330.03 C98.00,333.45 99.67,331.38 100.92,326.40 ZM 731.51 115.01 C730.07,112.68 708.84,100.35 701.70,97.69 C697.39,96.09 701.77,99.19 712.18,105.11 C733.25,117.09 732.58,116.74 731.51,115.01 ZM 605.00 62.54 C605.00,61.83 596.87,59.80 596.30,60.37 C595.03,61.64 597.49,63.00 601.06,63.00 C603.23,63.00 605.00,62.79 605.00,62.54 ZM 584.00 58.23 C584.00,56.93 567.80,54.02 557.85,53.53 L 548.50 53.06 L 557.00 54.49 C561.67,55.28 568.42,56.57 572.00,57.36 C579.47,59.01 584.00,59.34 584.00,58.23 ZM 454.00 53.00 C456.14,52.32 455.92,52.20 452.50,52.20 C450.30,52.20 447.38,52.56 446.00,53.00 C443.86,53.68 444.08,53.80 447.50,53.80 C449.70,53.80 452.62,53.44 454.00,53.00 ZM 537.00 51.44 C524.23,49.99 492.81,49.59 482.90,50.75 C476.70,51.48 502.20,52.38 536.50,52.65 L 548.50 52.74 L 537.00 51.44 ZM 384.00 641.95 C339.45,638.44 293.16,620.53 258.31,593.32 C226.56,568.53 203.76,537.97 188.62,499.93 C179.65,477.37 176.88,460.43 176.77,427.50 C176.69,403.46 178.25,390.45 181.61,387.00 C183.52,385.04 216.95,384.36 235.00,385.92 C285.75,390.31 329.70,411.60 374.68,453.61 C403.88,480.87 424.03,515.11 437.49,560.36 C441.64,574.29 443.02,584.91 443.61,607.50 C444.37,636.78 444.54,636.52 422.91,639.89 C407.38,642.31 396.17,642.91 384.00,641.95 ZM 565.06 639.91 C562.02,639.31 559.40,637.85 556.73,635.27 L 552.83 631.50 L 553.25 609.00 C553.61,589.23 554.00,584.92 556.42,573.50 C561.13,551.34 567.21,534.34 578.07,513.00 C587.61,494.24 597.78,480.22 617.48,458.64 C638.56,435.55 652.37,424.76 677.00,412.13 C699.28,400.70 720.13,393.16 744.22,387.83 C753.44,385.79 757.19,385.55 780.50,385.53 C794.80,385.51 808.63,385.86 811.24,386.31 C815.95,387.11 815.99,387.15 817.74,392.81 C819.25,397.69 819.50,402.64 819.50,427.50 C819.50,459.81 818.77,466.75 813.46,484.95 C801.81,524.89 778.31,559.62 743.21,588.76 C728.16,601.26 701.95,616.34 681.40,624.33 C654.56,634.76 642.19,638.37 627.79,639.94 C616.36,641.19 571.47,641.17 565.06,639.91 Z" fill="rgb(251,251,251)"/>
</g>
</svg>